<svg width="12" height="11" viewBox="0 0 12 11" fill="none" xmlns="http://www.w3.org/2000/svg">
<g id="Group 19">
<g id="Vector" filter="url(#filter0_d_134_68)">
<path d="M10.5078 5.12827C10.5078 7.53324 8.31447 9.48286 5.60887 9.48286C2.90328 9.48286 0.709961 7.53324 0.709961 5.12827C0.709961 2.7233 2.90328 0.773682 5.60887 0.773682C8.31447 0.773682 10.5078 2.7233 10.5078 5.12827Z" fill="#D9D9D9"/>
<path d="M4.7487 6.74585V6.61905C4.7487 6.26854 4.77757 5.98916 4.8353 5.78092C4.89509 5.57267 4.98169 5.40566 5.09509 5.27989C5.20849 5.15206 5.34663 5.03556 5.50952 4.93041C5.63941 4.84794 5.75488 4.76443 5.85591 4.6799C5.959 4.5933 6.04044 4.50052 6.10023 4.40155C6.16003 4.30258 6.18992 4.19021 6.18992 4.06444C6.18992 3.94279 6.16106 3.83558 6.10333 3.74279C6.04559 3.65001 5.96621 3.57888 5.86518 3.5294C5.76622 3.47785 5.65591 3.45208 5.53426 3.45208C5.41261 3.45208 5.29818 3.47991 5.19097 3.53558C5.08581 3.59125 4.99921 3.67063 4.93117 3.77372C4.8652 3.87475 4.83118 3.99743 4.82911 4.14176H3.40645C3.41264 3.70877 3.51263 3.35414 3.70645 3.07785C3.90232 2.80157 4.16108 2.59745 4.48273 2.46549C4.80437 2.33147 5.15901 2.26446 5.54663 2.26446C5.97137 2.26446 6.34868 2.33044 6.67858 2.4624C7.01053 2.59435 7.27135 2.7892 7.46104 3.04693C7.65073 3.30466 7.74557 3.62012 7.74557 3.99331C7.74557 4.23867 7.70434 4.45516 7.62186 4.64278C7.53939 4.83041 7.42393 4.99639 7.27548 5.14072C7.12909 5.28298 6.95692 5.41288 6.75899 5.5304C6.60435 5.62112 6.47549 5.71597 6.37239 5.81494C6.27136 5.9139 6.19508 6.0273 6.14353 6.15514C6.09199 6.28091 6.06621 6.43555 6.06621 6.61905V6.74585H4.7487ZM5.4322 8.7747C5.20952 8.7747 5.0188 8.69635 4.86004 8.53965C4.70334 8.38295 4.62602 8.19326 4.62809 7.97058C4.62602 7.75203 4.70334 7.56543 4.86004 7.41079C5.0188 7.25409 5.20952 7.17574 5.4322 7.17574C5.64457 7.17574 5.83116 7.25409 5.99199 7.41079C6.15281 7.56543 6.23425 7.75203 6.23631 7.97058C6.23425 8.11903 6.19508 8.25408 6.11879 8.37573C6.04456 8.49738 5.94663 8.59429 5.82498 8.66645C5.70539 8.73861 5.57447 8.7747 5.4322 8.7747Z" fill="black"/>
</g>
</g>
<defs>
<filter id="filter0_d_134_68" x="0.709961" y="0.773682" width="10.3421" height="9.25349" filterUnits="userSpaceOnUse" color-interpolation-filters="sRGB">
<feFlood flood-opacity="0" result="BackgroundImageFix"/>
<feColorMatrix in="SourceAlpha" type="matrix" values="0 0 0 0 0 0 0 0 0 0 0 0 0 0 0 0 0 0 127 0" result="hardAlpha"/>
<feOffset dx="0.544324" dy="0.544324"/>
<feComposite in2="hardAlpha" operator="out"/>
<feColorMatrix type="matrix" values="0 0 0 0 0.629167 0 0 0 0 0.60033 0 0 0 0 0.60033 0 0 0 1 0"/>
<feBlend mode="normal" in2="BackgroundImageFix" result="effect1_dropShadow_134_68"/>
<feBlend mode="normal" in="SourceGraphic" in2="effect1_dropShadow_134_68" result="shape"/>
</filter>
</defs>
</svg>
